<svg xmlns="http://www.w3.org/2000/svg" xmlns:xlink="http://www.w3.org/1999/xlink" viewBox="0 0 640 480"><defs><clipPath id="ae"><use height="100%" width="100%" xlink:href="#a" overflow="visible"/></clipPath><clipPath id="af"><use height="100%" width="100%" xlink:href="#b" overflow="visible"/></clipPath><clipPath id="ag"><use height="100%" width="100%" xlink:href="#c" overflow="visible"/></clipPath><clipPath id="ah"><use height="100%" width="100%" xlink:href="#d" overflow="visible"/></clipPath><clipPath id="aa"><use height="100%" width="100%" xlink:href="#e" overflow="visible"/></clipPath><clipPath id="ab"><use height="100%" width="100%" xlink:href="#f" overflow="visible"/></clipPath><clipPath id="ac"><use height="100%" width="100%" xlink:href="#g" overflow="visible"/></clipPath><clipPath id="ad"><use height="100%" width="100%" xlink:href="#h" overflow="visible"/></clipPath><clipPath id="W"><use height="100%" width="100%" xlink:href="#i" overflow="visible"/></clipPath><clipPath id="X"><use height="100%" width="100%" xlink:href="#j" overflow="visible"/></clipPath><clipPath id="Y"><use height="100%" width="100%" xlink:href="#k" overflow="visible"/></clipPath><clipPath id="Z"><use height="100%" width="100%" xlink:href="#l" overflow="visible"/></clipPath><clipPath id="S"><use height="100%" width="100%" xlink:href="#m" overflow="visible"/></clipPath><clipPath id="T"><use height="100%" width="100%" xlink:href="#n" overflow="visible"/></clipPath><clipPath id="U"><use height="100%" width="100%" xlink:href="#o" overflow="visible"/></clipPath><clipPath id="V"><use height="100%" width="100%" xlink:href="#p" overflow="visible"/></clipPath><clipPath id="O"><use height="100%" width="100%" xlink:href="#q" overflow="visible"/></clipPath><clipPath id="P"><use height="100%" width="100%" xlink:href="#r" overflow="visible"/></clipPath><clipPath id="Q"><use height="100%" width="100%" xlink:href="#s" overflow="visible"/></clipPath><clipPath id="R"><use height="100%" width="100%" xlink:href="#t" overflow="visible"/></clipPath><clipPath id="M"><use height="100%" width="100%" xlink:href="#u" overflow="visible"/></clipPath><clipPath id="N"><use height="100%" width="100%" xlink:href="#v" overflow="visible"/></clipPath><clipPath id="K"><use height="100%" width="100%" xlink:href="#w" overflow="visible"/></clipPath><clipPath id="L"><use height="100%" width="100%" xlink:href="#x" overflow="visible"/></clipPath><clipPath id="I"><use height="100%" width="100%" xlink:href="#y" overflow="visible"/></clipPath><clipPath id="J"><use height="100%" width="100%" xlink:href="#z" overflow="visible"/></clipPath><clipPath id="G"><use height="100%" width="100%" xlink:href="#A" overflow="visible"/></clipPath><clipPath id="H"><use height="100%" width="100%" xlink:href="#B" overflow="visible"/></clipPath><clipPath id="E"><use height="100%" width="100%" xlink:href="#C" overflow="visible"/></clipPath><clipPath id="F"><use height="100%" width="100%" xlink:href="#D" overflow="visible"/></clipPath></defs><path d="M207.293 72.102c23.893-12.65 55.894-16.757 74.057-18.055" class="st0" fill="none" stroke="#8b999e" stroke-width="3.24336" stroke-miterlimit="10"/><path class="st1" fill="#8b999e" d="M278.43 59.02l17.3-5.62-17.732-3.785z"/><g transform="translate(-26.013 -19.47) scale(1.08112)"><defs><path id="C" d="M40.1 177.2H114v73.9H40.1z"/></defs><g clip-path="url(#E)" class="st2"><defs><path id="D" d="M40.1 177.2H114v73.9H40.1z"/></defs><path clip-path="url(#F)" d="M77 214.1c10.2 0 18.5-8.3 18.5-18.5s-8.3-18.5-18.5-18.5-18.5 8.3-18.5 18.5c0 10.3 8.3 18.5 18.5 18.5m0 9.3c-12.3 0-36.9 6.2-36.9 18.5v9.2H114v-9.2c-.1-12.4-24.7-18.5-37-18.5" class="st3" fill="#607d8b"/></g></g><g transform="translate(-26.013 -19.47) scale(1.08112)"><defs><path id="A" d="M284.8 47.8h73.9v73.9h-73.9z"/></defs><g clip-path="url(#G)" class="st4"><defs><path id="B" d="M284.8 47.8h73.9v73.9h-73.9z"/></defs><path clip-path="url(#H)" d="M321.8 84.7c10.2 0 18.5-8.3 18.5-18.5s-8.3-18.5-18.5-18.5-18.5 8.3-18.5 18.5c0 10.3 8.2 18.5 18.5 18.5m0 9.3c-12.3 0-36.9 6.2-36.9 18.5v9.2h73.9v-9.2c-.1-12.3-24.7-18.5-37-18.5" class="st5" fill="#607d8b"/></g></g><g transform="translate(-26.013 -19.47) scale(1.08112)"><defs><path id="y" d="M148.7 358.3h73.9v73.9h-73.9z"/></defs><g clip-path="url(#I)" class="st6"><defs><path id="z" d="M148.7 358.3h73.9v73.9h-73.9z"/></defs><path clip-path="url(#J)" d="M185.6 395.3c10.2 0 18.5-8.3 18.5-18.5s-8.3-18.5-18.5-18.5-18.5 8.3-18.5 18.5c.1 10.2 8.3 18.5 18.5 18.5m0 9.2c-12.3 0-36.9 6.2-36.9 18.5v9.2h73.9V423c0-12.3-24.6-18.5-37-18.5" class="st7" fill="#607d8b"/></g></g><g transform="translate(-26.013 -19.47) scale(1.08112)"><defs><path id="w" d="M428.2 358.3h73.9v73.9h-73.9z"/></defs><g clip-path="url(#K)" class="st8"><defs><path id="x" d="M428.2 358.3h73.9v73.9h-73.9z"/></defs><path clip-path="url(#L)" d="M465.2 395.3c10.2 0 18.5-8.3 18.5-18.5s-8.3-18.5-18.5-18.5-18.5 8.3-18.5 18.5 8.2 18.5 18.5 18.5m0 9.2c-12.3 0-36.9 6.2-36.9 18.5v9.2h73.9V423c-.1-12.3-24.7-18.5-37-18.5" class="st9" fill="#607d8b"/></g></g><g transform="translate(-26.013 -19.47) scale(1.08112)"><defs><path id="u" d="M526.1 177.2H600v73.9h-73.9z"/></defs><g clip-path="url(#M)" class="st10"><defs><path id="v" d="M526.1 177.2H600v73.9h-73.9z"/></defs><path clip-path="url(#N)" d="M563 214.1c10.2 0 18.5-8.3 18.5-18.5s-8.3-18.5-18.5-18.5-18.5 8.3-18.5 18.5c0 10.3 8.3 18.5 18.5 18.5m0 9.3c-12.3 0-36.9 6.2-36.9 18.5v9.2H600v-9.2c-.1-12.4-24.7-18.5-37-18.5" class="st11" fill="#607d8b"/></g></g><g transform="translate(-26.013 -19.47) scale(1.08112)"><defs><path id="q" d="M136.1 69.1h78.2v71.1h-78.2z"/></defs><g clip-path="url(#O)" class="st12"><defs><path id="r" d="M136.1 69.1h78.2v71.1h-78.2z"/></defs><g clip-path="url(#P)" class="st13"><defs><path id="s" d="M136.5 69.5h77.4v70.3h-77.4z"/></defs><g clip-path="url(#Q)" class="st14"><defs><path id="t" d="M136.5 69.5h77.4v70.3h-77.4z"/></defs><path clip-path="url(#R)" d="M213.8 90.6v10.5c0 2-1.6 3.5-3.5 3.5v28.1c0 3.9-3.2 7-7 7H147c-3.9 0-7-3.2-7-7v-28.1c-2 0-3.5-1.6-3.5-3.5V90.6c0-3.9 3.2-7 7-7h11.2c-.4-1.1-.6-2.3-.6-3.5 0-5.8 4.7-10.6 10.5-10.6 3.5 0 6.6 1.8 8.6 4.4l2 2.7 2-2.7c1.9-2.6 5-4.4 8.6-4.4 5.8 0 10.5 4.7 10.5 10.6 0 1.2-.2 2.4-.6 3.5h11.1c3.9-.1 7 3.1 7 7m-7 0h-28.1v7h28.1v-7zm-3.5 14h-24.6v28.1h24.6v-28.1zM189.2 80c0-2-1.6-3.5-3.5-3.5-2 0-3.5 1.6-3.5 3.5s1.6 3.5 3.5 3.5 3.5-1.5 3.5-3.5m-17.6 24.6H147v28.1h24.6v-28.1zm0-14h-28.1v7h28.1v-7zM168.1 80c0-2-1.6-3.5-3.5-3.5s-3.5 1.6-3.5 3.5 1.6 3.5 3.5 3.5 3.5-1.5 3.5-3.5" class="st15" fill="#b72126"/></g></g></g></g><path d="M73.99 172.106c20.542-37.948 46.49-54.813 46.49-54.813" class="st0" fill="none" stroke="#8b999e" stroke-width="3.24336" stroke-miterlimit="10"/><g transform="translate(-26.013 -19.47) scale(1.08112)"><defs><path id="m" d="M517.2 296.5h78.2v71.1h-78.2z"/></defs><g clip-path="url(#S)" class="st16"><defs><path id="n" d="M517.2 296.5h78.2v71.1h-78.2z"/></defs><g clip-path="url(#T)" class="st17"><defs><path id="o" d="M517.6 296.9H595v70.3h-77.4z"/></defs><g clip-path="url(#U)" class="st18"><defs><path id="p" d="M517.6 296.9H595v70.3h-77.4z"/></defs><path clip-path="url(#V)" d="M595 318.1v10.5c0 2-1.6 3.5-3.5 3.5v28.1c0 3.9-3.2 7-7 7h-56.3c-3.9 0-7-3.2-7-7v-28.1c-2 0-3.5-1.6-3.5-3.5v-10.5c0-3.9 3.2-7 7-7h11.2c-.4-1.1-.6-2.3-.6-3.5 0-5.8 4.7-10.6 10.5-10.6 3.5 0 6.6 1.8 8.6 4.4l2 2.7 2-2.7c1.9-2.6 5-4.4 8.6-4.4 5.8 0 10.5 4.7 10.5 10.6 0 1.2-.2 2.4-.6 3.5H588c3.8-.1 7 3.1 7 7m-7 0h-28.1v7H588v-7zm-3.6 14h-24.6v28.1h24.6v-28.1zm-14-24.6c0-2-1.6-3.5-3.5-3.5-2 0-3.5 1.6-3.5 3.5s1.6 3.5 3.5 3.5 3.5-1.6 3.5-3.5m-17.6 24.6h-24.6v28.1h24.6v-28.1zm0-14h-28.1v7h28.1v-7zm-3.5-10.6c0-2-1.6-3.5-3.5-3.5s-3.5 1.6-3.5 3.5 1.6 3.5 3.5 3.5 3.5-1.6 3.5-3.5" class="st19" fill="#b72126"/></g></g></g></g><path d="M549.144 380.87c-5.406 8.973-14.596 18.92-21.84 26.055" class="st0" fill="none" stroke="#8b999e" stroke-width="3.24336" stroke-miterlimit="10"/><path class="st1" fill="#8b999e" d="M526.332 401.303l-9.514 15.46 16-8.65z"/><path d="M603.308 255.784c-1.73 21.407-12.54 42.813-12.54 42.813" class="st0" fill="none" stroke="#8b999e" stroke-width="3.24336" stroke-miterlimit="10"/><g transform="translate(-26.013 -19.47) scale(1.08112)"><defs><path id="i" d="M219.1 266.4h78.2v71.1h-78.2z"/></defs><g clip-path="url(#W)" class="st20"><defs><path id="j" d="M219.1 266.4h78.2v71.1h-78.2z"/></defs><g clip-path="url(#X)" class="st21"><defs><path id="k" d="M219.5 266.8h77.4v70.3h-77.4z"/></defs><g clip-path="url(#Y)" class="st22"><defs><path id="l" d="M219.5 266.8h77.4v70.3h-77.4z"/></defs><path clip-path="url(#Z)" d="M296.8 287.9v10.5c0 2-1.6 3.5-3.5 3.5V330c0 3.9-3.2 7-7 7H230c-3.9 0-7-3.2-7-7v-28.1c-2 0-3.5-1.6-3.5-3.5v-10.5c0-3.9 3.2-7 7-7h11.2c-.4-1.1-.6-2.3-.6-3.5 0-5.8 4.7-10.6 10.5-10.6 3.5 0 6.6 1.8 8.6 4.4l2 2.7 2-2.7c1.9-2.6 5-4.4 8.6-4.4 5.8 0 10.5 4.7 10.5 10.6 0 1.2-.2 2.4-.6 3.5h11.1c3.9-.1 7 3.1 7 7m-7 0h-28.1v7h28.1v-7zm-3.5 14h-24.6V330h24.6v-28.1zm-14.1-24.6c0-2-1.6-3.5-3.5-3.5-2 0-3.5 1.6-3.5 3.5s1.6 3.5 3.5 3.5c2 0 3.5-1.5 3.5-3.5m-17.5 24.6H230V330h24.6v-28.1zm0-14h-28.1v7h28.1v-7zm-3.6-10.6c0-2-1.6-3.5-3.5-3.5s-3.5 1.6-3.5 3.5 1.6 3.5 3.5 3.5c2 0 3.5-1.5 3.5-3.5" class="st23" fill="#b72126"/></g></g></g></g><g transform="translate(-26.013 -19.47) scale(1.08112)"><defs><path id="e" d="M408.6 201.5h78.2v71.1h-78.2z"/></defs><g clip-path="url(#aa)" class="st24"><defs><path id="f" d="M408.6 201.5h78.2v71.1h-78.2z"/></defs><g clip-path="url(#ab)" class="st25"><defs><path id="g" d="M409 201.9h77.4v70.3H409z"/></defs><g clip-path="url(#ac)" class="st26"><defs><path id="h" d="M409 201.9h77.4v70.3H409z"/></defs><path clip-path="url(#ad)" d="M486.3 223v10.5c0 2-1.6 3.5-3.5 3.5v28.1c0 3.9-3.2 7-7 7h-56.3c-3.9 0-7-3.2-7-7V237c-2 0-3.5-1.6-3.5-3.5V223c0-3.9 3.2-7 7-7h11.2c-.4-1.1-.6-2.3-.6-3.5 0-5.8 4.7-10.6 10.5-10.6 3.5 0 6.6 1.8 8.6 4.4l2 2.7 2-2.7c1.9-2.6 5-4.4 8.6-4.4 5.8 0 10.5 4.7 10.5 10.6 0 1.2-.2 2.4-.6 3.5h11.1c3.9-.1 7 3.1 7 7m-7 0h-28.1v7h28.1v-7zm-3.5 14h-24.6v28.1h24.6V237zm-14.1-24.6c0-2-1.6-3.5-3.5-3.5-2 0-3.5 1.6-3.5 3.5s1.6 3.5 3.5 3.5c2 0 3.5-1.5 3.5-3.5M444.1 237h-24.6v28.1h24.6V237zm0-14H416v7h28.1v-7zm-3.5-10.6c0-2-1.6-3.5-3.5-3.5s-3.5 1.6-3.5 3.5 1.6 3.5 3.5 3.5 3.5-1.5 3.5-3.5" class="st27" fill="#b72126"/></g></g></g></g><g transform="translate(-26.013 -19.47) scale(1.08112)"><defs><path id="a" d="M176.8 178.5H255v71.1h-78.2z"/></defs><g clip-path="url(#ae)" class="st28"><defs><path id="b" d="M176.8 178.6H255v71.1h-78.2z"/></defs><g clip-path="url(#af)" class="st29"><defs><path id="c" d="M177.2 179h77.4v70.3h-77.4z"/></defs><g clip-path="url(#ag)" class="st30"><defs><path id="d" d="M177.2 179h77.4v70.3h-77.4z"/></defs><path clip-path="url(#ah)" d="M254.5 200.1v10.5c0 2-1.6 3.5-3.5 3.5v28.1c0 3.9-3.2 7-7 7h-56.3c-3.9 0-7-3.2-7-7v-28.1c-2 0-3.5-1.6-3.5-3.5v-10.5c0-3.9 3.2-7 7-7h11.2c-.4-1.1-.6-2.3-.6-3.5 0-5.8 4.7-10.6 10.5-10.6 3.5 0 6.6 1.8 8.6 4.4l2 2.7 2-2.7c1.9-2.6 5-4.4 8.6-4.4 5.8 0 10.5 4.7 10.5 10.6 0 1.2-.2 2.4-.6 3.5h11.1c3.9-.1 7 3.1 7 7m-7 0h-28.1v7h28.1v-7zm-3.5 14h-24.6v28.1H244v-28.1zm-14.1-24.6c0-2-1.6-3.5-3.5-3.5-2 0-3.5 1.6-3.5 3.5s1.6 3.5 3.5 3.5 3.5-1.6 3.5-3.5m-17.6 24.6h-24.6v28.1h24.6v-28.1zm0-14h-28.1v7h28.1v-7zm-3.5-10.6c0-2-1.6-3.5-3.5-3.5s-3.5 1.6-3.5 3.5 1.6 3.5 3.5 3.5 3.5-1.6 3.5-3.5" class="st31" fill="#b72126"/></g></g></g></g><path d="M327.406 120.86c0 71.354-39.894 156.98-39.894 156.98M251.51 356.437c-6.486 11.892-14.918 23.676-21.297 31.893" class="st0" fill="none" stroke="#8b999e" stroke-width="3.24336" stroke-miterlimit="10"/><path class="st1" fill="#8b999e" d="M228.59 382.924l-7.35 16.65 14.703-10.704z"/><path d="M251.51 227.35c121.843 38.49 206.387 132.546 206.387 132.546" class="st0" fill="none" stroke="#8b999e" stroke-width="3.24336" stroke-miterlimit="10"/><g><path d="M160.913 201.404c-12.65-4-27.352-5.406-37.947-5.838" class="st0" fill="none" stroke="#8b999e" stroke-width="3.24336" stroke-miterlimit="10"/><path class="st1" fill="#8b999e" d="M126.21 190.917l-17.623 4.433 17.514 4.973z"/></g><path d="M236.375 413.52c74.706-103.68 175.79-168.006 175.79-168.006" class="st0" fill="none" stroke="#8b999e" stroke-width="3.24336" stroke-miterlimit="10"/><g><path d="M493.682 209.62c12.973-2.81 27.028-4 37.3-4.648" class="st32" fill="none" stroke="#8b999e" stroke-width="2.16224" stroke-miterlimit="10"/><path class="st1" fill="#8b999e" d="M527.737 210.053l18.38-5.622-18.704-4.323z"/></g></svg>
