<svg xmlns="http://www.w3.org/2000/svg" viewBox="48 48 32 32"><path class="st0" d="M77.75 59v3.7c0 .7-.6 1.3-1.3 1.3v10c0 1.4-1.1 2.5-2.5 2.5h-19.9c-1.4 0-2.5-1.1-2.5-2.5V64c-.7 0-1.3-.6-1.3-1.3V59c0-1.4 1.1-2.5 2.5-2.5h4c-.1-.4-.2-.8-.2-1.3 0-2.1 1.7-3.7 3.7-3.7 1.3 0 2.4.6 3 1.5l.7 1 .7-1c.7-.9 1.8-1.5 3-1.5 2.1 0 3.7 1.7 3.7 3.7 0 .5-.1.9-.2 1.3h4c1.5 0 2.6 1.1 2.6 2.5zm-2.5 2.5V59h-10v2.5h10zM74.05 74V64h-8.7v10h8.7zm-5-18.7c0-.7-.6-1.3-1.3-1.3-.7 0-1.3.6-1.3 1.3 0 .7.6 1.3 1.3 1.3.7 0 1.3-.6 1.3-1.3zM62.75 74V64h-8.7v10h8.7zm0-12.5V59h-10v2.5h10zm-1.2-6.2c0-.7-.6-1.3-1.3-1.3-.7 0-1.3.6-1.3 1.3 0 .7.6 1.3 1.3 1.3.8-.1 1.3-.6 1.3-1.3z" fill="#b72126"/></svg>
