<svg xmlns="http://www.w3.org/2000/svg" id="Layer_1" viewBox="0 0 128 128"><style id="style3">.st0{fill:#b72126}.st1{fill:#607d8b}</style><g id="layer1"><g id="g5"><g id="XMLID_1_"><g id="g8"><path class="st0" d="M117.4 26.3v6.5c0 1.2-1 2.2-2.2 2.2v17.4c0 2.4-1.9 4.4-4.3 4.4H76.1c-2.4 0-4.3-1.9-4.3-4.4V35c-1.2 0-2.2-1-2.2-2.2v-6.5c0-2.4 1.9-4.4 4.3-4.4h6.9c-.2-.7-.4-1.4-.4-2.2 0-3.6 2.9-6.5 6.5-6.5 2.2 0 4.1 1.1 5.3 2.7l1.2 1.7 1.2-1.7c1.2-1.6 3.1-2.7 5.3-2.7 3.6 0 6.5 2.9 6.5 6.5 0 .8-.1 1.5-.4 2.2h6.9c2.6.1 4.5 2 4.5 4.4zm-4.3 4.4v-4.3H95.7v4.3h17.4zm-2.2 21.7V35H95.7v17.4h15.2zm-8.7-32.6c0-1.2-1-2.2-2.2-2.2-1.2 0-2.2 1-2.2 2.2 0 1.2 1 2.2 2.2 2.2 1.2 0 2.2-1 2.2-2.2zM91.3 52.4V35H76.1v17.4h15.2zm0-21.7v-4.3H73.9v4.3h17.4zm-2.1-10.9c0-1.2-1-2.2-2.2-2.2-1.2 0-2.2 1-2.2 2.2 0 1.2 1 2.2 2.2 2.2 1.2 0 2.2-1 2.2-2.2z" id="path10" fill="#b72126"/></g></g><path class="st1" d="M93.5 93c6.3 0 11.4-5.1 11.4-11.4 0-6.3-5.1-11.4-11.4-11.4-6.3 0-11.4 5.1-11.4 11.4 0 6.3 5.1 11.4 11.4 11.4zm0 5.7c-7.6 0-22.8 3.8-22.8 11.4v5.7h45.7v-5.7c-.1-7.6-15.3-11.4-22.9-11.4z" id="path14" fill="#607d8b"/><path class="st1" d="M34.5 35c6.3 0 11.4-5.1 11.4-11.4 0-6.3-5.1-11.4-11.4-11.4-6.3 0-11.4 5.1-11.4 11.4 0 6.3 5.1 11.4 11.4 11.4zm0 5.7c-7.6 0-22.8 3.8-22.8 11.4v5.7h45.7v-5.7c-.1-7.6-15.3-11.4-22.9-11.4z" id="path16" fill="#607d8b"/><g id="XMLID_2_"><g id="g19"><path class="st0" d="M58.4 84.3v6.5c0 1.2-1 2.2-2.2 2.2v17.4c0 2.4-1.9 4.4-4.3 4.4H17.1c-2.4 0-4.3-1.9-4.3-4.4V93c-1.2 0-2.2-1-2.2-2.2v-6.5c0-2.4 1.9-4.4 4.3-4.4h6.9c-.2-.7-.4-1.4-.4-2.2 0-3.6 2.9-6.5 6.5-6.5 2.2 0 4.1 1.1 5.3 2.7l1.2 1.7 1.2-1.7c1.2-1.6 3.1-2.7 5.3-2.7 3.6 0 6.5 2.9 6.5 6.5 0 .8-.1 1.5-.4 2.2h6.9c2.6 0 4.5 2 4.5 4.4zm-4.3 4.3v-4.3H36.7v4.3h17.4zm-2.2 21.8V93H36.7v17.4h15.2zm-8.7-32.6c0-1.2-1-2.2-2.2-2.2-1.2 0-2.2 1-2.2 2.2 0 1.2 1 2.2 2.2 2.2 1.2-.1 2.2-1 2.2-2.2zm-10.9 32.6V93H17.1v17.4h15.2zm0-21.8v-4.3H14.9v4.3h17.4zm-2.1-10.8c0-1.2-1-2.2-2.2-2.2-1.2 0-2.2 1-2.2 2.2 0 1.2 1 2.2 2.2 2.2 1.2 0 2.2-1 2.2-2.2z" id="path21" fill="#b72126"/></g></g></g></g></svg>
